<?xml version="1.0" encoding="UTF-8"?>
<svg width="64" height="64" viewBox="0 0 64 64" xmlns="http://www.w3.org/2000/svg">
  <defs>
    <linearGradient id="grad1" x1="0%" y1="0%" x2="100%" y2="100%">
      <stop offset="0%" style="stop-color:#0d7377;stop-opacity:1" />
      <stop offset="100%" style="stop-color:#14a085;stop-opacity:1" />
    </linearGradient>
  </defs>
  
  <!-- Background circle -->
  <circle cx="32" cy="32" r="30" fill="url(#grad1)" stroke="#ffffff" stroke-width="2"/>
  
  <!-- Gear icon -->
  <g transform="translate(32,32)">
    <!-- Outer gear -->
    <path d="M-12,-3 L-12,-6 L-9,-9 L-6,-9 L-6,-12 L-3,-12 L-3,-15 L3,-15 L3,-12 L6,-12 L6,-9 L9,-9 L9,-6 L12,-6 L12,-3 L15,-3 L15,3 L12,3 L12,6 L9,6 L9,9 L6,9 L6,12 L3,12 L3,15 L-3,15 L-3,12 L-6,12 L-6,9 L-9,9 L-9,6 L-12,6 L-12,3 L-15,3 L-15,-3 Z" fill="#ffffff" opacity="0.9"/>
    
    <!-- Inner circle -->
    <circle cx="0" cy="0" r="6" fill="#0d7377"/>
  </g>
  
  <!-- Arrow indicating setup/installation -->
  <path d="M45 20 L50 25 L45 30 M50 25 L40 25" stroke="#ffffff" stroke-width="2" fill="none" opacity="0.8"/>
</svg>
